<?xml version="1.0" encoding="iso-8859-1"?>
<!-- Uploaded to: SVG Repo, www.svgrepo.com, Generator: SVG Repo Mixer Tools -->
<svg height="800px" width="800px" version="1.1" id="Layer_1" xmlns="http://www.w3.org/2000/svg" xmlns:xlink="http://www.w3.org/1999/xlink" 
	 viewBox="0 0 512 512" xml:space="preserve">
<path style="fill:#EDEDED;" d="M467.478,489.739H66.783c-24.588,0-44.522-19.934-44.522-44.522V44.522
	c0-12.295,9.966-22.261,22.261-22.261h422.957c12.295,0,22.261,9.966,22.261,22.261v422.957
	C489.739,479.773,479.773,489.739,467.478,489.739z"/>
<path style="fill:#777777;" d="M509.555,487.294l-22.261,22.261c-1.631,1.629-3.768,2.445-5.904,2.445s-4.273-0.815-5.904-2.445
	c-3.26-3.26-3.26-8.546,0-11.805l8.011-8.011H52.87c-16.877,0-30.609-13.731-30.609-30.609V28.501l-8.009,8.011
	c-3.261,3.26-8.546,3.26-11.806,0s-3.26-8.546,0-11.805L24.706,2.445c3.261-3.26,8.546-3.26,11.806,0l22.261,22.261
	c3.26,3.26,3.26,8.546,0,11.805c-1.631,1.629-3.768,2.445-5.904,2.445s-4.273-0.815-5.904-2.445l-8.009-8.011v430.63
	c0,7.672,6.241,13.913,13.913,13.913h430.629l-8.011-8.011c-3.26-3.26-3.26-8.546,0-11.805c3.261-3.26,8.546-3.26,11.806,0
	l22.261,22.261C512.815,478.748,512.815,484.035,509.555,487.294z"/>
<path style="fill:#FF6029;" d="M111.304,434.087h-11.13c-12.295,0-22.261-9.966-22.261-22.261V178.087
	c0-12.295,9.966-22.261,22.261-22.261h11.13c12.295,0,22.261,9.966,22.261,22.261v233.739
	C133.565,424.121,123.599,434.087,111.304,434.087z M320,434.087h11.13c12.295,0,22.261-9.966,22.261-22.261V244.87
	c0-12.295-9.966-22.261-22.261-22.261H320c-12.295,0-22.261,9.966-22.261,22.261v166.957
	C297.739,424.121,307.705,434.087,320,434.087z"/>
<path style="fill:#73A4BC;" d="M203.13,434.087H192c-12.295,0-22.261-9.966-22.261-22.261V22.261C169.739,9.966,179.705,0,192,0
	h11.13c12.295,0,22.261,9.966,22.261,22.261v389.565C225.391,424.121,215.425,434.087,203.13,434.087z M411.826,434.087h11.13
	c12.295,0,22.261-9.966,22.261-22.261V77.913c0-12.295-9.966-22.261-22.261-22.261h-11.13c-12.295,0-22.261,9.966-22.261,22.261
	v333.913C389.565,424.121,399.531,434.087,411.826,434.087z"/>
</svg>